0
SECTION
2
HEADER
9
$ACADVER
1
AC1009
9
$INSUNITS
70
4
0
ENDSEC
0
SECTION
2
TABLES
0
TABLE
2
LAYER
70
3
0
LAYER
2
CUT
70
0
62
1
6
CONTINUOUS
0
LAYER
2
CREASE
70
0
62
5
6
DASHED
0
LAYER
2
GLUE
70
0
62
8
6
CONTINUOUS
0
ENDTAB
0
ENDSEC
0
SECTION
2
ENTITIES
0
LINE
8
CUT
10
20
20
40
30
0
11
75
21
40
31
0
0
LINE
8
CUT
10
75
20
40
30
0
11
75
21
66
31
0
0
LINE
8
CUT
10
75
20
66
30
0
11
20
21
66
31
0
0
LINE
8
CUT
10
20
20
66
30
0
11
20
21
40
31
0
0
LINE
8
CUT
10
95
20
40
30
0
11
150
21
40
31
0
0
LINE
8
CUT
10
150
20
40
30
0
11
150
21
66
31
0
0
LINE
8
CUT
10
150
20
66
30
0
11
95
21
66
31
0
0
LINE
8
CUT
10
95
20
66
30
0
11
95
21
40
31
0
0
LINE
8
CUT
10
162.0
20
8
30
0
11
172.0
21
8
31
0
0
LINE
8
CUT
10
172.0
20
8
30
0
11
172.0
21
18
31
0
0
LINE
8
CUT
10
172.0
20
18
30
0
11
162.0
21
18
31
0
0
LINE
8
CUT
10
162.0
20
18
30
0
11
162.0
21
8
31
0
0
LINE
8
CREASE
10
52
20
40
30
0
11
52
21
66
31
0
0
LINE
8
CREASE
10
127
20
40
30
0
11
127
21
66
31
0
0
LINE
8
GLUE
10
27
20
47
30
0
11
45
21
47
31
0
0
LINE
8
GLUE
10
45
20
47
30
0
11
45
21
59
31
0
0
LINE
8
GLUE
10
45
20
59
30
0
11
27
21
59
31
0
0
LINE
8
GLUE
10
27
20
59
30
0
11
27
21
47
31
0
0
LINE
8
GLUE
10
102
20
47
30
0
11
120
21
47
31
0
0
LINE
8
GLUE
10
120
20
47
30
0
11
120
21
59
31
0
0
LINE
8
GLUE
10
120
20
59
30
0
11
102
21
59
31
0
0
LINE
8
GLUE
10
102
20
59
30
0
11
102
21
47
31
0
0
ENDSEC
0
EOF
