0
SECTION
2
HEADER
9
$ACADVER
1
AC1009
9
$INSUNITS
70
4
0
ENDSEC
0
SECTION
2
TABLES
0
TABLE
2
LAYER
70
3
0
LAYER
2
CUT
70
0
62
1
6
CONTINUOUS
0
LAYER
2
CREASE
70
0
62
5
6
DASHED
0
LAYER
2
GLUE
70
0
62
8
6
CONTINUOUS
0
ENDTAB
0
ENDSEC
0
SECTION
2
ENTITIES
0
LINE
8
CUT
10
10
20
40
30
0
11
755
21
40
31
0
0
LINE
8
CUT
10
755
20
40
30
0
11
755
21
270
31
0
0
LINE
8
CUT
10
755
20
270
30
0
11
10
21
270
31
0
0
LINE
8
CUT
10
10
20
270
30
0
11
10
21
40
31
0
0
LINE
8
CUT
10
737.0
20
8
30
0
11
747.0
21
8
31
0
0
LINE
8
CUT
10
747.0
20
8
30
0
11
747.0
21
18
31
0
0
LINE
8
CUT
10
747.0
20
18
30
0
11
737.0
21
18
31
0
0
LINE
8
CUT
10
737.0
20
18
30
0
11
737.0
21
8
31
0
0
LINE
8
CREASE
10
25
20
40
30
0
11
25
21
270
31
0
0
LINE
8
CREASE
10
315
20
40
30
0
11
315
21
270
31
0
0
LINE
8
CREASE
10
390
20
40
30
0
11
390
21
270
31
0
0
LINE
8
CREASE
10
680
20
40
30
0
11
680
21
270
31
0
0
LINE
8
GLUE
10
12
20
45
30
0
11
23
21
45
31
0
0
LINE
8
GLUE
10
23
20
45
30
0
11
23
21
265
31
0
0
LINE
8
GLUE
10
23
20
265
30
0
11
12
21
265
31
0
0
LINE
8
GLUE
10
12
20
265
30
0
11
12
21
45
31
0
0
ENDSEC
0
EOF
