0
SECTION
2
HEADER
9
$ACADVER
1
AC1009
9
$INSUNITS
70
4
0
ENDSEC
0
SECTION
2
TABLES
0
TABLE
2
LAYER
70
3
0
LAYER
2
CUT
70
0
62
1
6
CONTINUOUS
0
LAYER
2
CREASE
70
0
62
5
6
DASHED
0
LAYER
2
GLUE
70
0
62
8
6
CONTINUOUS
0
ENDTAB
0
ENDSEC
0
SECTION
2
ENTITIES
0
LINE
8
CUT
10
20
20
45
30
0
11
340
21
45
31
0
0
LINE
8
CUT
10
340
20
45
30
0
11
340
21
300
31
0
0
LINE
8
CUT
10
340
20
300
30
0
11
20
21
300
31
0
0
LINE
8
CUT
10
20
20
300
30
0
11
20
21
45
31
0
0
LINE
8
CUT
10
332.0
20
8
30
0
11
342.0
21
8
31
0
0
LINE
8
CUT
10
342.0
20
8
30
0
11
342.0
21
18
31
0
0
LINE
8
CUT
10
342.0
20
18
30
0
11
332.0
21
18
31
0
0
LINE
8
CUT
10
332.0
20
18
30
0
11
332.0
21
8
31
0
0
LINE
8
CREASE
10
35
20
45
30
0
11
35
21
300
31
0
0
LINE
8
CREASE
10
325
20
45
30
0
11
325
21
300
31
0
0
LINE
8
CREASE
10
35
20
120
30
0
11
325
21
120
31
0
0
LINE
8
CREASE
10
35
20
230
30
0
11
325
21
230
31
0
0
LINE
8
GLUE
10
22
20
50
30
0
11
33
21
50
31
0
0
LINE
8
GLUE
10
33
20
50
30
0
11
33
21
295
31
0
0
LINE
8
GLUE
10
33
20
295
30
0
11
22
21
295
31
0
0
LINE
8
GLUE
10
22
20
295
30
0
11
22
21
50
31
0
0
ENDSEC
0
EOF
