0
SECTION
2
HEADER
9
$ACADVER
1
AC1009
9
$INSUNITS
70
4
0
ENDSEC
0
SECTION
2
TABLES
0
TABLE
2
LAYER
70
3
0
LAYER
2
CUT
70
0
62
1
6
CONTINUOUS
0
LAYER
2
CREASE
70
0
62
5
6
DASHED
0
LAYER
2
GLUE
70
0
62
8
6
CONTINUOUS
0
ENDTAB
0
ENDSEC
0
SECTION
2
ENTITIES
0
LINE
8
CUT
10
20
20
45
30
0
11
320
21
45
31
0
0
LINE
8
CUT
10
320
20
45
30
0
11
320
21
280
31
0
0
LINE
8
CUT
10
320
20
280
30
0
11
20
21
280
31
0
0
LINE
8
CUT
10
20
20
280
30
0
11
20
21
45
31
0
0
LINE
8
CUT
10
312.0
20
8
30
0
11
322.0
21
8
31
0
0
LINE
8
CUT
10
322.0
20
8
30
0
11
322.0
21
18
31
0
0
LINE
8
CUT
10
322.0
20
18
30
0
11
312.0
21
18
31
0
0
LINE
8
CUT
10
312.0
20
18
30
0
11
312.0
21
8
31
0
0
LINE
8
CREASE
10
35
20
45
30
0
11
35
21
280
31
0
0
LINE
8
CREASE
10
305
20
45
30
0
11
305
21
280
31
0
0
LINE
8
CREASE
10
35
20
80
30
0
11
305
21
80
31
0
0
LINE
8
CREASE
10
35
20
245
30
0
11
305
21
245
31
0
0
LINE
8
GLUE
10
22
20
50
30
0
11
33
21
50
31
0
0
LINE
8
GLUE
10
33
20
50
30
0
11
33
21
275
31
0
0
LINE
8
GLUE
10
33
20
275
30
0
11
22
21
275
31
0
0
LINE
8
GLUE
10
22
20
275
30
0
11
22
21
50
31
0
0
ENDSEC
0
EOF
